<?xml version="1.0" encoding="UTF-8" standalone="no"?>
<svg
   xmlns:dc="http://purl.org/dc/elements/1.1/"
   xmlns:cc="http://creativecommons.org/ns#"
   xmlns:rdf="http://www.w3.org/1999/02/22-rdf-syntax-ns#"
   xmlns:svg="http://www.w3.org/2000/svg"
   xmlns="http://www.w3.org/2000/svg"
   xmlns:xlink="http://www.w3.org/1999/xlink"
   id="svg9"
   version="1.1"
   width="480pt"
   viewBox="-8 0 480 480.001"
   height="480pt">
  <metadata
     id="metadata15">
    <rdf:RDF>
      <cc:Work
         rdf:about="">
        <dc:format>image/svg+xml</dc:format>
        <dc:type
           rdf:resource="http://purl.org/dc/dcmitype/StillImage" />
        <dc:title></dc:title>
      </cc:Work>
    </rdf:RDF>
  </metadata>
  <defs
     id="defs13">
    <linearGradient
       id="linearGradient1513">
      <stop
         id="stop1509"
         offset="0"
         style="stop-color:#ffffff;stop-opacity:1" />
      <stop
         id="stop1511"
         offset="1"
         style="stop-color:#ffffff;stop-opacity:0.50980395" />
    </linearGradient>
    <linearGradient
       spreadMethod="repeat"
       gradientUnits="userSpaceOnUse"
       y2="240.00005"
       x2="464"
       y1="240.00005"
       x1="0"
       id="linearGradient1515"
       xlink:href="#linearGradient1513" />
  </defs>
  <linearGradient
     y2="56.424996"
     y1="471.576996"
     x2="439.5765"
     x1="24.4245"
     gradientUnits="userSpaceOnUse"
     id="a">
    <stop
       id="stop2"
       stop-color="#41dfd0"
       offset="0" />
    <stop
       id="stop4"
       stop-color="#ee83ef"
       offset="1" />
  </linearGradient>
  <g
     id="layer2">
    <path
       style="fill:url(#linearGradient1515);fill-opacity:1;fill-rule:nonzero"
       id="path7"
       d="M 408,48 H 279.19922 c -0.50391,-2.414062 -1.23828,-4.777344 -2.1836,-7.054688 l 39.4336,-26.289062 c 3.67578,-2.453125 4.66797,-7.417969 2.21484,-11.09375 -2.45312,-3.675781 -7.41797,-4.667969 -11.09375,-2.21875 L 268.14453,27.625 c -15.5625,-15.5 -40.72656,-15.5 -56.28906,0 L 172.44141,1.34375 c -3.67579,-2.449219 -8.64454,-1.457031 -11.09766,2.21875 -2.45313,3.675781 -1.46094,8.640625 2.21484,11.09375 l 39.4336,26.289062 C 202.04297,43.222656 201.30859,45.585938 200.80078,48 H 56 C 25.089844,48.039062 0.0390625,73.089844 0,104 v 320 c 0.0390625,30.91406 25.089844,55.96094 56,56 h 352 c 30.91016,-0.0391 55.96094,-25.08594 56,-56 V 104 C 463.96094,73.089844 438.91016,48.039062 408,48 Z M 240,32 c 10.16797,0.01172 19.23047,6.417969 22.63281,16 H 217.36719 C 220.76953,38.417969 229.83203,32.011719 240,32 Z m 208,392 c -0.0273,22.08203 -17.91797,39.97266 -40,40 H 56 C 33.921875,463.97266 16.027344,446.08203 16,424 V 368 H 448 Z M 378.3728,337.76268 123.3125,352 C 432,352 444.22458,445.48211 416.74959,169.714 l 2.03681,-68.68035 C 418.91736,96.617624 416,99.582031 416,104 Z M 48,352 v 0 -248 c 0,-4.417969 -5.011235,-12.413017 -5.220367,-8 l -4.257281,89.83553 C 41.993027,311.42706 32.626657,261.07207 48,352 Z m 400,0 H 432 V 104 C 432,90.746094 421.25391,80 408,80 H 56 C 42.746094,80 32,90.746094 32,104 V 352 H 16 V 104 C 16.027344,81.921875 33.921875,64.027344 56,64 h 352 c 22.08203,0.02734 39.97266,17.921875 40,40 z m -48,32 c -3.71875,0.0352 -7.39844,0.72266 -10.87891,2.03125 -2.65234,-2.36719 -6.57031,-2.64844 -9.53125,-0.67969 -2.96484,1.96485 -4.22656,5.6875 -3.07031,9.05078 -10.16797,11.14454 -11.13281,27.89063 -2.31641,40.13282 8.81641,12.24218 25.00391,16.63672 38.80079,10.52343 13.79296,-6.10937 21.41796,-21.04687 18.27734,-35.80468 C 428.14063,394.49609 415.08594,383.96094 400,384 Z m 0,48 c -5.53516,0.0391 -10.69141,-2.80469 -13.60937,-7.50391 -2.91797,-4.70312 -3.1836,-10.58203 -0.69532,-15.52734 l 7.64844,11.47266 c 2.45313,3.67578 7.42188,4.66797 11.09766,2.21484 3.67578,-2.45312 4.66797,-7.41797 2.21484,-11.09375 l -7.64062,-11.46484 c 0.32812,0 0.64843,-0.0977 0.98437,-0.0977 8.83594,0 16,7.16406 16,16 0,8.83594 -7.16406,16 -16,16 z M 64,384 c -3.71875,0.0352 -7.398438,0.72266 -10.878906,2.03125 -2.652344,-2.36719 -6.570313,-2.64844 -9.53125,-0.67969 -2.964844,1.96485 -4.226563,5.6875 -3.070313,9.05078 -10.167969,11.14454 -11.132812,27.89063 -2.316406,40.13282 8.816406,12.24218 25.003906,16.63672 38.800781,10.52343 C 90.796875,438.94922 98.421875,424.01172 95.28125,409.25391 92.140625,394.49609 79.085938,383.96094 64,384 Z m 0,48 c -5.535156,0.0391 -10.691406,-2.80469 -13.609375,-7.50391 -2.917969,-4.70312 -3.183594,-10.58203 -0.695313,-15.52734 l 7.648438,11.47266 c 2.453125,3.67578 7.421875,4.66797 11.097656,2.21484 3.675782,-2.45312 4.667969,-7.41797 2.214844,-11.09375 L 63.015625,400.09766 C 63.34375,400.09766 63.664062,400 64,400 c 8.835938,0 16,7.16406 16,16 0,8.83594 -7.164062,16 -16,16 z m 48,-40 h 16 v 16 h -16 z m 32,0 h 16 v 16 h -16 z m -32,32 h 16 v 16 h -16 z m 32,0 h 16 v 16 h -16 z m 160,-32 h 16 v 16 h -16 z m 32,0 h 16 v 16 h -16 z m -32,32 h 16 v 16 h -16 z m 32,0 h 16 v 16 H 336 Z M 176,392 h 112 v 16 H 176 Z m 0,32 h 112 v 16 H 176 Z" />
  </g>
</svg>
